<?xml version="1.0" encoding="UTF-8" standalone="no"?>
<!DOCTYPE svg PUBLIC "-//W3C//DTD SVG 1.1//EN" "http://www.w3.org/Graphics/SVG/1.1/DTD/svg11.dtd">
<!-- Created with Vectornator (http://vectornator.io/) -->
<svg height="100%" stroke-miterlimit="10" style="fill-rule:nonzero;clip-rule:evenodd;stroke-linecap:round;stroke-linejoin:round;" version="1.1" viewBox="0 0 147.42 131.8" width="100%" xml:space="preserve" xmlns="http://www.w3.org/2000/svg" xmlns:vectornator="http://vectornator.io" xmlns:xlink="http://www.w3.org/1999/xlink">
<defs/>
<g id="layer1" vectornator:layerName="layer1">
<path d="M74.7388 33.5843C71.2709 32.4913 67.8037 31.3973 64.3357 30.3043C64.2787 30.5382 64.2212 30.7733 64.1639 31.0083C67.6178 32.1563 71.0717 33.3043 74.5253 34.4523C74.5968 34.1633 74.6676 33.8733 74.7391 33.5843" fill="#416dbe" fill-rule="nonzero" opacity="1" stroke="none" vectornator:layerName="path"/>
<path d="M76.6853 40.5263C70.9314 38.5403 65.1892 35.7873 59.622 38.5473C65.058 39.1773 70.8716 39.8513 76.6853 40.5263" fill="#416dbe" fill-rule="nonzero" opacity="1" stroke="none" vectornator:layerName="path"/>
<path d="M71.3408 89.9543C75.5966 91.9773 82.6595 92.1573 88.783 90.2873C93.442 88.8643 96.9166 85.8653 98.8291 81.0063C101.799 73.4603 96.7701 65.0853 89.5634 66.0183C87.1099 66.3363 84.7791 68.0403 82.5716 69.4273C79.6326 71.2733 77.0009 73.6823 73.999 75.3893C69.5927 77.8943 64.7224 78.7893 59.7256 77.4313C57.3881 76.7973 55.2267 75.3113 53.0681 74.2503C54.4888 84.1803 64.0088 90.1673 73.39 86.5483C72.9978 87.3283 72.7521 87.9013 72.4353 88.4213C72.1146 88.9493 71.7236 89.4243 71.3408 89.9543" fill="#416dbe" fill-rule="nonzero" opacity="1" stroke="none" vectornator:layerName="path"/>
<path d="M34.2455 117.934C35.3584 111.893 38.4873 107.229 42.6103 103.095C41.0123 103.84 39.4138 104.586 37.531 105.464C40.8646 101.502 45.0084 99.6843 49.399 98.3293C55.6068 96.4133 62.0174 97.0053 68.3884 97.3793C74.3287 97.7273 80.2025 97.6492 85.8017 95.5353C87.9451 94.7253 89.9295 93.4673 91.9857 92.4143C91.9021 92.2272 91.8185 92.0403 91.7354 91.8543C90.4519 92.3133 89.1652 92.7623 87.8854 93.2323C80.5167 95.9353 72.9233 95.9183 65.328 94.0303C56.441 91.8213 50.4823 85.8583 47.5089 76.5343C47.4188 76.2514 47.3295 75.9673 47.2291 75.6883C47.215 75.6534 47.1379 75.6432 46.9174 75.5452C46.7706 77.1741 46.6279 78.7552 46.4678 80.5281C44.3599 75.9472 43.9232 71.3502 44.4296 66.6212C44.2042 66.5792 43.9779 66.5361 43.7517 66.4942C43.2479 69.2072 42.7439 71.9212 42.2198 74.7442C39.5096 66.8932 40.9517 59.6841 44.4283 52.7022C41.6425 54.9272 39.7146 57.8012 38.7259 61.5712C37.9119 55.2122 40.6936 49.2112 46.8905 42.9322C44.481 43.9512 42.0713 44.9692 39.7936 45.9321C40.9151 41.5212 45.8475 37.6432 57.1013 32.5162C57.056 32.316 57.0106 32.1172 56.9658 31.9171C55.0135 32.3601 53.0776 32.8922 51.1061 33.2222C48.8103 33.6061 46.4729 34.1531 44.1748 33.9852C42.4315 33.857 40.7213 32.7201 39.0507 31.5742C42.2041 32.3262 45.1146 31.9832 47.8834 30.5972C48.9346 30.0711 49.9081 29.3632 50.9849 28.9092C53.9931 27.6402 57.0361 26.4612 60.3994 25.1122C57.5245 25.2281 54.8158 25.274 52.1206 25.4652C49.4624 25.6531 46.8267 25.7742 44.449 24.0582C41.6522 22.0382 40.4143 19.1322 40.2381 15.1252C40.9916 16.3962 41.4314 17.3481 42.0487 18.1432C44.7413 21.6181 48.3296 22.0782 51.9764 21.2602C56.4713 20.2531 60.8456 20.3912 65.3479 21.6382C67.4479 22.2191 69.6986 22.0852 71.894 21.8391C68.6417 21.1771 65.3612 20.6551 62.1435 19.8151C58.7811 18.9371 56.0326 16.9531 54.3507 13.4491C57.7553 16.5381 61.5518 18.1891 66.1147 17.7621C65.7284 16.0581 65.3706 14.4811 64.9862 12.7871C66.3233 14.0391 67.3901 15.5241 68.7791 16.2011C70.1382 16.8641 71.826 16.7021 73.3698 16.9021C73.4327 16.7142 73.4956 16.5271 73.558 16.3391C72.9713 15.5841 72.3838 14.8301 71.9697 14.2981C76.4763 15.2621 81.0795 16.2471 86.1713 17.3371C85.3607 16.0661 84.742 15.0971 84.1564 14.1791C86.915 13.994 89.0912 15.5751 90.2381 18.4651C90.4589 19.0211 91.2408 19.6231 91.8064 19.6981C94.2357 20.0201 96.4275 19.6171 98.1978 17.5341C99.6744 15.7961 101.075 15.9381 102.675 17.6861C104.451 19.6271 105.537 21.8051 104.401 24.6861C103.779 24.3681 103.186 24.0641 102.359 23.6401C102.414 25.1601 102.465 26.5171 102.54 28.5941C101.646 27.4091 101.151 26.7481 100.65 26.0911C99.5008 24.5811 98.9206 24.6721 98.2811 26.4961C98.1139 26.9731 98.0479 27.4941 97.937 27.9961C97.8293 28.4811 97.723 28.9681 97.6237 29.4241C96.4518 28.6911 95.3717 28.0161 94.2917 27.3411C93.8999 28.3961 93.5089 29.4511 93.1342 30.4601C98.5324 33.6771 102.231 33.0821 105.443 28.6671C105.588 30.9211 104.477 32.8691 102.088 33.2871C100.056 33.6431 97.8686 33.32 95.7686 33.06C94.3339 32.882 92.9467 32.141 91.5108 31.926C88.66 31.5 87.469 32.41 86.6128 35.017C89.6457 35.753 92.8178 36.222 95.8022 37.328C98.9644 38.5 101.651 38.649 103.834 35.726C106.17 38.547 106.084 42.6 103.507 46.637C103.67 45.434 103.784 44.599 103.936 43.482C102.335 45.691 100.936 47.622 99.4176 49.718C97.8038 41.725 90.5729 39.959 85.5557 43.708C83.3784 45.335 81.1112 46.883 78.7155 48.105C77.2437 48.856 75.4518 48.923 73.6889 48.902C74.5418 48.357 75.3936 47.812 76.246 47.267C76.1769 47.0629 76.1083 46.86 76.0385 46.656C73.0089 47.036 69.8788 47.053 66.9741 47.883C62.9288 49.039 60.5526 52.264 59.9143 56.713C59.1354 62.142 62.9018 65.661 67.7558 63.96C69.9362 63.196 72.0214 61.965 73.9288 60.6C78.0956 57.617 82.2725 54.776 87.3589 53.748C96.5007 51.903 106.68 58.413 110.315 67.621C115.34 80.352 110.135 95.459 99.8921 103.83C91.5421 110.656 81.8807 112.331 71.4952 111.341C66.0268 110.82 60.5264 110.032 55.0796 110.148C43.6257 110.394 36.0698 119.238 36.6604 131.128C36.6689 131.259 36.6718 131.491 36.6746 131.8L147.245 131.8L101.939 2.13151e-06L45.3066 2.13151e-06L7.73368e-06 131.8L34.3332 131.8C33.532 125.499 33.5367 121.789 34.247 117.934" fill="#416dbe" fill-rule="nonzero" opacity="1" stroke="none" vectornator:layerName="path"/>
<path d="M53.4759 55.2603C56.1482 48.6843 60.4959 44.6733 67.4529 43.6363C58.5439 41.5593 52.8295 49.2913 53.4759 55.2603" fill="#416dbe" fill-rule="nonzero" opacity="1" stroke="none" vectornator:layerName="path"/>
<path d="M79.6103 24.9913C80.4775 25.4513 81.3392 25.9073 82.2127 26.3703C83.397 25.2773 84.5658 24.1973 85.8545 23.0073C82.9236 21.0733 82.2978 21.2893 79.6103 24.9913" fill="#416dbe" fill-rule="nonzero" opacity="1" stroke="none" vectornator:layerName="path"/>
</g>
</svg>
