<?xml version="1.0" encoding="UTF-8" standalone="no"?>
<!DOCTYPE svg PUBLIC "-//W3C//DTD SVG 1.1//EN" "http://www.w3.org/Graphics/SVG/1.1/DTD/svg11.dtd">
<!-- Created with Vectornator (http://vectornator.io/) -->
<svg height="100%" stroke-miterlimit="10" style="fill-rule:nonzero;clip-rule:evenodd;stroke-linecap:round;stroke-linejoin:round;" version="1.1" viewBox="0 0 383.862 131.8" width="100%" xml:space="preserve" xmlns="http://www.w3.org/2000/svg" xmlns:vectornator="http://vectornator.io" xmlns:xlink="http://www.w3.org/1999/xlink">
<defs/>
<g id="layer1" vectornator:layerName="layer1">
<path d="M74.7388 33.5843C71.2709 32.4913 67.8037 31.3973 64.3357 30.3043C64.2787 30.5382 64.2212 30.7733 64.1639 31.0083C67.6178 32.1563 71.0717 33.3043 74.5253 34.4523C74.5968 34.1633 74.6676 33.8733 74.7391 33.5843" fill="#ffffff" fill-rule="nonzero" opacity="1" stroke="none" vectornator:layerName="path"/>
<path d="M76.6853 40.5263C70.9314 38.5403 65.1892 35.7873 59.622 38.5473C65.058 39.1773 70.8716 39.8513 76.6853 40.5263" fill="#ffffff" fill-rule="nonzero" opacity="1" stroke="none" vectornator:layerName="path"/>
<path d="M71.3408 89.9543C75.5966 91.9773 82.6595 92.1573 88.783 90.2873C93.442 88.8643 96.9166 85.8653 98.8291 81.0063C101.799 73.4603 96.7701 65.0853 89.5634 66.0183C87.1099 66.3363 84.7791 68.0403 82.5716 69.4273C79.6326 71.2733 77.0009 73.6823 73.999 75.3893C69.5927 77.8943 64.7224 78.7893 59.7256 77.4313C57.3881 76.7973 55.2267 75.3113 53.0681 74.2503C54.4888 84.1803 64.0088 90.1673 73.39 86.5483C72.9978 87.3283 72.7521 87.9013 72.4353 88.4213C72.1146 88.9493 71.7236 89.4243 71.3408 89.9543" fill="#ffffff" fill-rule="nonzero" opacity="1" stroke="none" vectornator:layerName="path"/>
<path d="M34.2455 117.934C35.3584 111.893 38.4873 107.229 42.6103 103.095C41.0123 103.84 39.4138 104.586 37.531 105.464C40.8646 101.502 45.0084 99.6843 49.399 98.3293C55.6068 96.4133 62.0174 97.0053 68.3884 97.3793C74.3287 97.7273 80.2025 97.6492 85.8017 95.5353C87.9451 94.7253 89.9295 93.4673 91.9857 92.4143C91.9021 92.2272 91.8185 92.0403 91.7354 91.8543C90.4519 92.3133 89.1652 92.7623 87.8854 93.2323C80.5167 95.9353 72.9233 95.9183 65.328 94.0303C56.441 91.8213 50.4823 85.8583 47.5089 76.5343C47.4188 76.2514 47.3295 75.9673 47.2291 75.6883C47.215 75.6534 47.1379 75.6432 46.9174 75.5452C46.7706 77.1741 46.6279 78.7552 46.4678 80.5281C44.3599 75.9472 43.9232 71.3502 44.4296 66.6212C44.2042 66.5792 43.9779 66.5361 43.7517 66.4942C43.2479 69.2072 42.7439 71.9212 42.2198 74.7442C39.5096 66.8932 40.9517 59.6841 44.4283 52.7022C41.6425 54.9272 39.7146 57.8012 38.7259 61.5712C37.9119 55.2122 40.6936 49.2112 46.8905 42.9322C44.481 43.9512 42.0713 44.9692 39.7936 45.9321C40.9151 41.5212 45.8475 37.6432 57.1013 32.5162C57.056 32.316 57.0106 32.1172 56.9658 31.9171C55.0135 32.3601 53.0776 32.8922 51.1061 33.2222C48.8103 33.6061 46.4729 34.1531 44.1748 33.9852C42.4315 33.857 40.7213 32.7201 39.0507 31.5742C42.2041 32.3262 45.1146 31.9832 47.8834 30.5972C48.9346 30.0711 49.9081 29.3632 50.9849 28.9092C53.9931 27.6402 57.0361 26.4612 60.3994 25.1122C57.5245 25.2281 54.8158 25.274 52.1206 25.4652C49.4624 25.6531 46.8267 25.7742 44.449 24.0582C41.6522 22.0382 40.4143 19.1322 40.2381 15.1252C40.9916 16.3962 41.4314 17.3481 42.0487 18.1432C44.7413 21.6181 48.3296 22.0782 51.9764 21.2602C56.4713 20.2531 60.8456 20.3912 65.3479 21.6382C67.4479 22.2191 69.6986 22.0852 71.894 21.8391C68.6417 21.1771 65.3612 20.6551 62.1435 19.8151C58.7811 18.9371 56.0326 16.9531 54.3507 13.4491C57.7553 16.5381 61.5518 18.1891 66.1147 17.7621C65.7284 16.0581 65.3706 14.4811 64.9862 12.7871C66.3233 14.0391 67.3901 15.5241 68.7791 16.2011C70.1382 16.8641 71.826 16.7021 73.3698 16.9021C73.4327 16.7142 73.4956 16.5271 73.558 16.3391C72.9713 15.5841 72.3838 14.8301 71.9697 14.2981C76.4763 15.2621 81.0795 16.2471 86.1713 17.3371C85.3607 16.0661 84.742 15.0971 84.1564 14.1791C86.915 13.994 89.0912 15.5751 90.2381 18.4651C90.4589 19.0211 91.2408 19.6231 91.8064 19.6981C94.2357 20.0201 96.4275 19.6171 98.1978 17.5341C99.6744 15.7961 101.075 15.9381 102.675 17.6861C104.451 19.6271 105.537 21.8051 104.401 24.6861C103.779 24.3681 103.186 24.0641 102.359 23.6401C102.414 25.1601 102.465 26.5171 102.54 28.5941C101.646 27.4091 101.151 26.7481 100.65 26.0911C99.5008 24.5811 98.9206 24.6721 98.2811 26.4961C98.1139 26.9731 98.0479 27.4941 97.937 27.9961C97.8293 28.4811 97.723 28.9681 97.6237 29.4241C96.4518 28.6911 95.3717 28.0161 94.2917 27.3411C93.8999 28.3961 93.5089 29.4511 93.1342 30.4601C98.5324 33.6771 102.231 33.0821 105.443 28.6671C105.588 30.9211 104.477 32.8691 102.088 33.2871C100.056 33.6431 97.8686 33.32 95.7686 33.06C94.3339 32.882 92.9467 32.141 91.5108 31.926C88.66 31.5 87.469 32.41 86.6128 35.017C89.6457 35.753 92.8178 36.222 95.8022 37.328C98.9644 38.5 101.651 38.649 103.834 35.726C106.17 38.547 106.084 42.6 103.507 46.637C103.67 45.434 103.784 44.599 103.936 43.482C102.335 45.691 100.936 47.622 99.4176 49.718C97.8038 41.725 90.5729 39.959 85.5557 43.708C83.3784 45.335 81.1112 46.883 78.7155 48.105C77.2437 48.856 75.4518 48.923 73.6889 48.902C74.5418 48.357 75.3936 47.812 76.246 47.267C76.1769 47.0629 76.1083 46.86 76.0385 46.656C73.0089 47.036 69.8788 47.053 66.9741 47.883C62.9288 49.039 60.5526 52.264 59.9143 56.713C59.1354 62.142 62.9018 65.661 67.7558 63.96C69.9362 63.196 72.0214 61.965 73.9288 60.6C78.0956 57.617 82.2725 54.776 87.3589 53.748C96.5007 51.903 106.68 58.413 110.315 67.621C115.34 80.352 110.135 95.459 99.8921 103.83C91.5421 110.656 81.8807 112.331 71.4952 111.341C66.0268 110.82 60.5264 110.032 55.0796 110.148C43.6257 110.394 36.0698 119.238 36.6604 131.128C36.6689 131.259 36.6718 131.491 36.6746 131.8L147.245 131.8L101.939 2.13151e-06L45.3066 2.13151e-06L7.73368e-06 131.8L34.3332 131.8C33.532 125.499 33.5367 121.789 34.247 117.934" fill="#ffffff" fill-rule="nonzero" opacity="1" stroke="none" vectornator:layerName="path"/>
<path d="M53.4759 55.2603C56.1482 48.6843 60.4959 44.6733 67.4529 43.6363C58.5439 41.5593 52.8295 49.2913 53.4759 55.2603" fill="#ffffff" fill-rule="nonzero" opacity="1" stroke="none" vectornator:layerName="path"/>
<path d="M79.6103 24.9913C80.4775 25.4513 81.3392 25.9073 82.2127 26.3703C83.397 25.2773 84.5658 24.1973 85.8545 23.0073C82.9236 21.0733 82.2978 21.2893 79.6103 24.9913" fill="#ffffff" fill-rule="nonzero" opacity="1" stroke="none" vectornator:layerName="path"/>
<path d="M231.249 51.4653C231.249 54.2403 231.562 56.4633 232.191 58.1383C232.818 59.8133 233.708 61.1093 234.86 62.0243C236.011 62.9413 237.346 63.5433 238.864 63.8303C240.381 64.1183 242.005 64.2623 243.731 64.2623C245.406 64.2623 247.159 64.0262 248.992 63.5553C250.823 63.0843 252.132 62.6133 252.917 62.1423L251.347 69.6003C250.038 70.2283 248.611 70.6873 247.068 70.9743C245.523 71.2613 243.939 71.4063 242.318 71.4063C239.701 71.4063 237.123 71.1432 234.585 70.6213C232.046 70.0983 229.808 69.1293 227.873 67.7163C225.935 66.3033 224.366 64.3013 223.162 61.7103C221.958 59.1203 221.356 55.7043 221.356 51.4653C221.356 47.0683 221.958 43.5233 223.162 40.8273C224.366 38.1323 225.935 36.0513 227.873 34.5853C229.808 33.1213 232.046 32.1263 234.585 31.6023C237.123 31.0803 239.701 30.8173 242.318 30.8173C243.939 30.8173 245.655 30.9094 247.461 31.0923C249.266 31.2762 251.189 31.8123 253.231 32.7013L253.231 40.3163C252.236 39.6882 250.823 39.1393 248.992 38.6683C247.159 38.1973 245.406 37.9613 243.731 37.9613C242.109 37.9613 240.539 38.0934 239.021 38.3543C237.502 38.6162 236.155 39.2053 234.977 40.1213C233.801 41.0373 232.884 42.4113 232.23 44.2422C231.575 46.0753 231.249 48.4813 231.249 51.4653" fill="#ffffff" fill-rule="nonzero" opacity="1" stroke="none" vectornator:layerName="path"/>
<path d="M277.646 70.8573L276.626 70.8573C272.7 70.8573 269.533 70.3733 267.126 69.4043C264.718 68.4363 262.834 67.1153 261.473 65.4393C260.112 63.7653 259.183 61.7243 258.686 59.3163C258.188 56.9093 257.941 54.2403 257.941 51.3083L257.941 24.8503L268.304 21.7103L268.304 33.0163L273.721 32.2303L279.845 31.6023L279.845 38.7463L268.304 40.1603L268.304 54.8413C268.304 56.5163 268.565 57.9163 269.089 59.0413C269.611 60.1673 270.292 61.0823 271.13 61.7893C271.967 62.4953 272.909 62.9933 273.956 63.2803C275.003 63.5683 276.076 63.7123 277.176 63.7123L280.315 63.7123L277.646 70.8573" fill="#ffffff" fill-rule="nonzero" opacity="1" stroke="none" vectornator:layerName="path"/>
<path d="M304.809 64.1833C308.578 64.1833 311.141 63.0193 312.503 60.6893C313.863 58.3613 314.544 55.1553 314.544 51.0723C314.544 46.9903 313.85 43.7853 312.464 41.4553C311.076 39.1263 308.525 37.9613 304.809 37.9613C301.093 37.9613 298.541 39.1263 297.154 41.4553C295.767 43.7853 295.074 46.9903 295.074 51.0723C295.074 53.0623 295.218 54.8683 295.506 56.4893C295.793 58.1123 296.304 59.5123 297.037 60.6893C297.769 61.8673 298.79 62.7443 300.099 63.3203C301.406 63.8963 302.976 64.1833 304.809 64.1833ZM304.809 71.4063C298.215 71.4063 293.268 69.7053 289.97 66.3033C286.674 62.9013 285.025 57.8243 285.025 51.0723C285.025 44.3733 286.725 39.3233 290.128 35.9203C293.529 32.5183 298.423 30.8173 304.809 30.8173C311.194 30.8173 316.088 32.5183 319.49 35.9203C322.892 39.3233 324.594 44.3733 324.594 51.0723C324.594 57.8243 322.944 62.9013 319.647 66.3033C316.35 69.7053 311.404 71.4063 304.809 71.4063" fill="#ffffff" fill-rule="nonzero" opacity="1" stroke="none" vectornator:layerName="path"/>
<path d="M339.745 70.8573L329.304 70.8573L329.304 34.2713L339.745 31.2093L339.745 39.8463C340.007 39.8463 342.179 37.9883 346.262 34.2713L351.757 33.6433L351.757 40.8663L339.745 43.8503L339.745 70.8573" fill="#ffffff" fill-rule="nonzero" opacity="1" stroke="none" vectornator:layerName="path"/>
<path d="M239.644 131.226L238.624 131.226C234.698 131.226 231.531 130.743 229.124 129.774C226.716 128.805 224.832 127.485 223.471 125.809C222.11 124.134 221.181 122.093 220.684 119.686C220.186 117.279 219.939 114.609 219.939 111.678L219.939 85.2203L230.302 82.0803L230.302 93.3853L235.72 92.6003L241.843 91.9723L241.843 99.1163L230.302 100.529L230.302 115.21C230.302 116.886 230.563 118.286 231.087 119.411C231.609 120.537 232.29 121.452 233.128 122.159C233.965 122.866 234.907 123.363 235.954 123.65C237.001 123.938 238.074 124.082 239.174 124.082L242.313 124.082L239.644 131.226" fill="#ffffff" fill-rule="nonzero" opacity="1" stroke="none" vectornator:layerName="path"/>
<path d="M282.352 131.226L271.911 131.226L271.911 91.3433L282.352 91.3433L282.352 131.226ZM266.415 131.226L265.315 131.226C258.929 131.226 254.285 129.683 251.381 126.594C248.475 123.506 247.023 118.9 247.023 112.777L247.023 91.3433L257.857 91.3433L257.857 114.19C257.857 117.592 258.576 120.091 260.016 121.687C261.456 123.285 263.536 124.082 266.258 124.082L271.911 124.082L266.415 131.226" fill="#ffffff" fill-rule="nonzero" opacity="1" stroke="none" vectornator:layerName="path"/>
<path d="M308.417 124.239C309.515 124.239 310.43 124.225 311.164 124.2C311.896 124.175 312.786 124.161 313.834 124.161L313.834 98.3311C312.263 98.1221 311.019 98.0171 310.104 98.0171C309.188 98.0171 308.338 98.0171 307.554 98.0171C303.628 98.0171 300.866 99.1561 299.27 101.432C297.674 103.708 296.876 106.941 296.876 111.128C296.876 113.693 297.124 115.838 297.621 117.566C298.118 119.292 298.864 120.655 299.859 121.648C300.853 122.643 302.07 123.324 303.51 123.689C304.949 124.056 306.584 124.239 308.417 124.239L308.417 124.239ZM306.925 131.226C300.749 131.226 295.894 129.578 292.361 126.28C288.828 122.983 287.062 118.011 287.062 111.364C287.062 108.329 287.455 105.553 288.24 103.041C289.024 100.529 290.215 98.3583 291.811 96.5263C293.408 94.6943 295.396 93.2683 297.778 92.2473C300.159 91.2263 302.946 90.7153 306.139 90.7153C307.396 90.7153 308.574 90.7295 309.673 90.7553C310.771 90.7808 312.158 90.8474 313.834 90.9523L313.834 76.4273L324.432 76.4273L324.432 131.226L313.834 131.226L313.834 124.161L307.788 131.226L306.925 131.226" fill="#ffffff" fill-rule="nonzero" opacity="1" stroke="none" vectornator:layerName="path"/>
<path d="M339.584 131.226L329.142 131.226L329.142 91.7363L339.584 89.3023L339.584 131.226ZM329.142 77.1333L339.584 77.1333L339.584 84.3573L329.142 86.7903L329.142 77.1333" fill="#ffffff" fill-rule="nonzero" opacity="1" stroke="none" vectornator:layerName="path"/>
<path d="M364.078 124.553C367.846 124.553 370.41 123.388 371.772 121.059C373.132 118.731 373.813 115.525 373.813 111.442C373.813 107.36 373.119 104.154 371.732 101.825C370.345 99.4973 367.794 98.3313 364.078 98.3313C360.361 98.3313 357.809 99.4973 356.424 101.825C355.036 104.154 354.343 107.36 354.343 111.442C354.343 113.432 354.487 115.237 354.775 116.859C355.062 118.482 355.572 119.882 356.305 121.059C357.038 122.237 358.058 123.114 359.368 123.689C360.676 124.266 362.246 124.553 364.078 124.553ZM364.078 131.776C357.483 131.776 352.538 130.076 349.24 126.672C345.942 123.271 344.294 118.194 344.294 111.442C344.294 104.744 345.994 99.6933 349.396 96.2893C352.799 92.8883 357.692 91.1873 364.078 91.1873C370.464 91.1873 375.356 92.8883 378.76 96.2893C382.161 99.6933 383.862 104.744 383.862 111.442C383.862 118.194 382.214 123.271 378.916 126.672C375.619 130.076 370.673 131.776 364.078 131.776" fill="#ffffff" fill-rule="nonzero" opacity="1" stroke="none" vectornator:layerName="path"/>
<path d="M184.953 17.9663C189.384 15.0583 194.888 14.5423 196.727 14.4523L196.812 28.3713L176.328 28.3333C178.184 23.9343 181.016 20.5293 184.953 17.9663ZM211.66 0.7113C211.659 0.368308 211.387 0.0862887 211.044 0.0752903C210.705 0.0639517 202.684-0.193718 197.2 0.575293C181.274 2.4793 174.675 6.8963 167.418 14.9073C167.406 14.9186 167.398 14.9328 167.388 14.9433C162.101 21.7293 159.393 28.3153 157.395 39.2453C155.999 46.8823 156.642 58.4273 157.135 64.4973C157.175 65.2883 157.236 66.0773 157.342 66.8593C157.436 67.5533 157.563 68.2423 157.709 68.9253C157.932 69.9773 158.209 71.0173 158.554 72.0343C160.032 76.3843 162.578 80.2663 165.918 83.2613C167.876 85.0173 170.039 86.4173 172.367 87.4593L172.364 87.465C172.364 87.465 174.637 88.323 178.192 89.254C178.192 89.254 180.311 89.673 182.593 91.374C187.604 94.742 190.303 100.501 189.233 106.426C187.73 114.753 179.23 120.32 170.286 118.83C162.765 117.579 157.013 111.515 156.609 104.413C156.586 104.033 156.268 103.734 155.889 103.748C155.509 103.759 155.205 104.067 155.202 104.447C155.101 117.699 164.054 128.818 176.491 130.887C177.863 131.115 179.23 131.225 180.584 131.225C193.227 131.225 204.666 121.583 207.098 108.106C207.959 103.338 207.606 98.451 206.078 93.97C204.599 89.633 202.058 85.761 198.726 82.768C198.717 82.7595 198.706 82.751 198.697 82.7425C198.081 82.1915 197.409 81.6505 196.698 81.1345C196.673 81.1089 196.645 81.0826 196.613 81.0613C196.608 81.0585 196.602 81.0528 196.596 81.05C196.574 81.033 196.549 81.0199 196.524 81.006C195.862 80.5351 195.151 80.08 194.41 79.659C194.39 79.6449 194.372 79.6307 194.35 79.6191C194.328 79.6021 194.305 79.5882 194.282 79.5751C193.542 79.1581 192.753 78.7691 191.944 78.4221C191.922 78.4108 191.897 78.3995 191.865 78.3853C191.865 78.3853 190.39 77.5393 187.043 76.9383C186.894 76.8932 186.737 76.8513 186.593 76.8062C186.564 76.7977 186.533 76.7892 186.503 76.7864C186.517 76.7884 186.532 76.792 186.529 76.7892C186.5 76.7779 186.457 76.7637 186.404 76.7512C178.671 74.2732 174.046 67.0622 175.405 59.5912C176.92 51.2582 185.428 45.6982 194.374 47.1972C195.253 47.3443 196.105 47.5632 196.93 47.8362C199.607 48.7232 201.969 50.2342 203.82 52.1732C203.862 52.2191 203.911 52.2713 203.955 52.3192C204.214 52.5973 204.464 52.8812 204.701 53.1752C204.701 53.1752 204.873 53.3951 205.151 53.8232C205.176 53.8623 205.202 53.9031 205.226 53.9431C206.389 55.7681 209.138 60.9171 209.802 69.5011C209.822 69.744 209.845 69.9781 209.86 70.2261C209.861 70.2271 209.861 70.2281 209.861 70.2289C209.861 70.2269 209.89 69.965 209.927 69.5019L211.125 69.5104C211.127 69.5104 211.128 69.5104 211.131 69.5104C211.3 69.5104 211.461 69.4444 211.581 69.3253C211.701 69.2054 211.769 69.0424 211.768 68.8713L211.659 0.710336" fill="#ffffff" fill-rule="nonzero" opacity="1" stroke="none" vectornator:layerName="path"/>
<path d="M352.577 24.7733L246.99 24.7733L246.99 18.8863L352.577 18.8863L352.577 24.7733" fill="#ffffff" fill-rule="nonzero" opacity="1" stroke="none" vectornator:layerName="path"/>
</g>
</svg>
