<?xml version="1.0" standalone="no"?>
<!DOCTYPE svg PUBLIC "-//W3C//DTD SVG 20010904//EN"
 "http://www.w3.org/TR/2001/REC-SVG-20010904/DTD/svg10.dtd">
<svg version="1.0" xmlns="http://www.w3.org/2000/svg"
 width="1775.000000pt" height="900.000000pt" viewBox="0 0 1775.000000 900.000000"
 preserveAspectRatio="xMidYMid meet">

<g transform="translate(0.000000,900.000000) scale(0.100000,-0.100000)"
fill="" stroke="none">
<path d="M10290 8153 c-224 -13 -723 -89 -788 -120 -53 -25 -56 -83 -5 -144
46 -55 80 -63 171 -40 122 31 245 52 254 43 4 -4 3 -35 -2 -67 -20 -118 -61
-583 -63 -700 -2 -134 7 -159 70 -190 70 -34 85 -2 118 256 14 112 28 211 30
219 2 8 9 56 15 105 6 50 20 161 32 248 19 143 23 158 42 162 12 2 90 9 174
15 85 5 162 15 173 20 12 7 19 21 19 41 0 73 -88 162 -157 157 -15 -1 -53 -3
-83 -5z"/>
<path d="M7866 8119 c-128 -19 -428 -116 -465 -150 -35 -33 -27 -69 35 -146
29 -35 34 -49 34 -95 1 -84 44 -481 76 -691 9 -57 28 -91 64 -117 53 -38 78
-31 186 55 149 118 396 337 509 451 182 183 238 325 185 467 -65 173 -329 269
-624 226z m380 -256 c70 -37 82 -97 34 -180 -59 -103 -540 -483 -564 -445 -5
8 -22 211 -31 377 -3 55 -8 121 -11 147 l-6 47 74 22 c142 43 237 58 353 56
89 -2 118 -7 151 -24z"/>
<path d="M6960 8044 c-27 -25 -54 -62 -61 -82 -25 -76 5 -407 61 -666 11 -54
18 -101 15 -104 -9 -9 -121 105 -189 193 -61 78 -140 196 -246 365 -111 178
-181 281 -194 286 -37 14 -132 -72 -147 -132 -13 -59 -11 -268 6 -533 31 -486
35 -505 96 -536 17 -9 45 -15 62 -13 52 5 55 28 47 413 -3 187 -3 344 1 349 4
5 29 -26 56 -69 117 -188 220 -323 338 -441 105 -105 131 -125 205 -161 109
-52 144 -59 170 -33 26 26 25 51 -10 221 -38 182 -57 356 -70 629 -12 262 -18
331 -32 347 -21 25 -58 14 -108 -33z"/>
<path d="M11005 8041 c-74 -45 -151 -152 -332 -461 -188 -321 -274 -480 -280
-515 -7 -43 29 -109 70 -129 35 -16 27 -18 263 62 213 73 340 102 466 109
l107 6 16 -59 c44 -157 53 -176 104 -210 29 -19 49 -24 77 -22 36 3 39 5 42
37 4 43 -20 138 -118 471 -151 508 -194 620 -263 694 -29 31 -41 36 -78 36
-25 0 -57 -8 -74 -19z m109 -342 c36 -43 136 -378 123 -413 -4 -9 -34 -16
-104 -21 -142 -10 -238 -22 -320 -42 -40 -9 -76 -14 -79 -10 -8 8 154 321 205
393 53 77 61 87 91 107 35 24 55 21 84 -14z"/>
<path d="M5671 7956 c-26 -32 -34 -130 -25 -346 14 -351 11 -455 -15 -523 -46
-118 -112 -161 -247 -160 -100 1 -187 18 -208 41 -51 57 -84 517 -55 770 14
117 3 155 -44 160 -43 5 -112 -41 -144 -95 l-27 -47 2 -264 c2 -351 29 -558
87 -658 31 -54 87 -77 230 -99 147 -22 294 -23 367 -1 211 61 310 323 279 735
-7 86 -21 208 -33 271 -11 63 -24 131 -27 150 -11 59 -108 105 -140 66z"/>
<path d="M12115 7949 c-113 -10 -241 -40 -279 -64 -46 -31 -46 -79 1 -135 l27
-32 -12 -107 c-18 -153 -44 -615 -40 -689 4 -57 8 -66 41 -100 l37 -37 118 0
c165 1 281 30 467 121 182 88 305 190 353 294 30 64 33 130 8 178 -30 58 -122
110 -223 127 -24 4 -45 11 -48 15 -3 5 20 27 52 48 77 52 159 140 167 180 16
72 -44 131 -174 171 -130 40 -277 48 -495 30z m370 -213 c88 -58 -16 -151
-225 -200 -58 -13 -129 -27 -159 -31 l-54 -6 7 78 c12 138 13 141 58 154 118
31 328 34 373 5z m50 -422 c72 -18 95 -37 95 -80 0 -26 -7 -38 -32 -57 -109
-82 -365 -157 -534 -157 l-64 0 0 33 c1 50 27 257 33 263 10 10 237 21 342 17
55 -3 127 -11 160 -19z"/>
<path d="M13235 7881 c-69 -43 -85 -81 -105 -251 -15 -130 -38 -474 -46 -670
l-7 -175 34 -44 c52 -68 86 -81 204 -81 104 0 286 24 465 60 134 27 164 36
185 60 26 29 6 87 -45 134 -53 48 -75 51 -167 28 -114 -29 -252 -50 -381 -58
l-114 -7 7 69 c3 38 17 159 30 269 35 296 58 562 52 612 -2 23 -10 50 -17 58
-17 20 -59 19 -95 -4z"/>
<path d="M4200 7866 c-146 -33 -232 -109 -402 -356 -136 -197 -168 -273 -168
-400 0 -142 51 -227 195 -325 182 -124 372 -156 515 -87 159 76 252 232 266
448 12 180 -44 500 -102 588 -75 113 -182 160 -304 132z m82 -252 c70 -36 118
-168 133 -369 11 -144 -15 -240 -88 -316 -98 -103 -266 -84 -392 46 -122 124
-111 254 40 480 111 166 201 213 307 159z"/>
<path d="M3020 7804 c-69 -9 -236 -46 -315 -70 -129 -40 -318 -115 -339 -134
-32 -31 -14 -83 49 -146 l53 -53 7 -88 c9 -126 55 -586 65 -661 13 -94 53
-142 120 -144 53 -2 62 21 56 149 -5 135 -4 137 80 122 180 -32 304 -67 492
-138 64 -24 87 -29 103 -21 39 22 14 103 -43 138 -51 31 -225 107 -327 143
-54 19 -91 37 -89 44 2 6 66 69 143 139 344 314 405 390 405 499 0 140 -106
213 -322 221 -57 2 -119 2 -138 0z m199 -185 c63 -22 67 -68 10 -133 -88 -99
-485 -406 -526 -406 -8 0 -33 287 -33 377 0 17 18 29 108 66 59 25 148 57 197
72 50 15 95 28 100 30 24 8 115 4 144 -6z"/>
<path d="M15015 7753 c-63 -5 -323 -43 -401 -59 -63 -13 -74 -12 -102 2 -26
12 -39 13 -66 4 -46 -15 -62 -36 -86 -111 -121 -377 -140 -683 -52 -856 32
-62 110 -136 176 -167 98 -47 196 -59 375 -46 85 5 186 10 225 10 91 0 116 15
116 71 0 57 -34 117 -75 135 -46 19 -93 18 -248 -7 -144 -23 -221 -21 -302 7
-65 22 -92 42 -115 86 l-20 37 53 14 c280 80 588 137 732 137 62 0 78 3 96 21
35 35 -2 103 -77 139 -41 20 -55 22 -132 16 -141 -11 -410 -46 -511 -67 -91
-18 -151 -24 -151 -14 0 16 73 312 81 326 18 35 324 90 582 105 123 7 143 17
133 68 -4 17 -18 48 -33 68 -44 65 -101 88 -198 81z"/>
<path d="M8650 6718 c-19 -5 -163 -13 -320 -18 -157 -5 -303 -12 -325 -15 -22
-3 -218 -10 -435 -15 -438 -11 -658 -21 -1080 -50 -157 -10 -341 -22 -410 -25
-290 -14 -933 -77 -1285 -126 -349 -48 -853 -138 -1201 -214 -779 -171 -1334
-350 -1809 -584 -416 -205 -687 -431 -795 -662 -48 -105 -63 -180 -57 -294 10
-213 129 -406 373 -606 160 -130 498 -321 756 -425 54 -21 96 -43 95 -48 -3
-8 -118 -54 -257 -102 -41 -15 -148 -55 -237 -90 -89 -35 -167 -64 -173 -64
-6 0 -32 -11 -58 -24 -26 -13 -73 -31 -105 -40 -36 -11 -73 -30 -97 -52 -45
-41 -99 -142 -107 -202 -11 -81 36 -151 115 -171 193 -48 236 -52 295 -27 50
21 105 74 132 127 14 26 39 56 57 67 35 21 484 247 553 277 22 10 100 47 174
82 74 35 144 63 157 63 13 0 97 -22 186 -49 391 -118 924 -241 1458 -336 80
-15 183 -33 230 -42 47 -8 112 -19 145 -24 33 -4 105 -15 160 -23 985 -142
1978 -228 3080 -266 442 -15 700 -13 735 5 82 42 60 153 -35 175 -22 5 -112
10 -200 10 -323 0 -1095 32 -1580 65 -569 39 -1127 95 -1730 175 -33 5 -91 13
-130 19 -38 6 -104 16 -145 21 -248 33 -802 134 -1105 201 -320 71 -791 193
-809 209 -4 5 5 16 20 26 16 10 38 29 50 43 l21 25 49 -21 c68 -30 237 -83
261 -83 11 0 23 -3 26 -7 12 -12 182 -63 210 -63 40 0 77 22 124 73 44 48 47
71 13 102 -28 25 -89 44 -145 45 -47 0 -86 13 -74 24 5 5 280 139 429 209 41
19 129 61 195 92 66 32 161 77 210 100 50 23 191 91 315 150 124 59 295 140
380 180 85 40 227 108 315 150 332 161 434 209 555 265 224 104 403 188 655
310 146 70 383 182 715 338 47 22 137 63 200 92 119 53 807 396 940 467 41 22
113 57 160 78 63 28 98 51 135 89 28 29 74 65 103 81 40 22 52 34 52 52 0 14
-6 23 -16 23 -8 0 -100 -21 -202 -46 -182 -45 -311 -89 -362 -125 -14 -9 -45
-22 -70 -29 -25 -6 -72 -26 -105 -44 -33 -18 -86 -42 -117 -54 -32 -12 -88
-37 -125 -56 -38 -18 -91 -40 -118 -49 -28 -8 -103 -40 -168 -71 -65 -31 -130
-59 -145 -62 -33 -8 -488 -202 -597 -255 -117 -56 -328 -147 -361 -155 -16 -4
-36 -12 -44 -19 -14 -11 -317 -144 -400 -175 -60 -23 -472 -202 -530 -230 -47
-24 -236 -107 -420 -185 -30 -13 -92 -40 -138 -59 -46 -20 -88 -36 -93 -36 -6
0 -150 -61 -322 -137 -172 -75 -352 -153 -402 -173 -96 -40 -400 -171 -550
-238 -49 -22 -146 -67 -215 -100 -135 -66 -251 -116 -315 -137 -22 -7 -67 -26
-100 -42 -33 -17 -85 -35 -116 -42 l-56 -12 -152 66 c-84 36 -165 65 -179 65
-15 0 -47 -11 -72 -24 -37 -19 -48 -31 -63 -71 -22 -59 -16 -92 19 -105 14 -6
83 -19 152 -31 164 -26 172 -28 172 -37 0 -15 -58 -42 -90 -42 -18 0 -118 34
-223 76 -836 331 -1225 700 -1103 1045 113 321 629 648 1431 909 808 262 1732
444 3185 624 550 69 700 83 1200 116 721 47 867 52 1262 46 211 -3 411 -8 445
-12 59 -5 64 -4 88 22 69 74 -6 168 -115 142z m-364 -463 c-19 -14 -86 -21
-86 -10 0 10 44 24 75 24 29 0 29 0 11 -14z m134 -28 c-8 -8 -40 -24 -70 -37
-287 -119 -757 -335 -1210 -557 -269 -132 -330 -160 -330 -150 0 2 37 29 83
60 59 41 197 107 497 241 228 101 453 202 500 224 234 109 327 151 350 157 14
4 45 19 70 34 61 35 71 39 100 40 21 1 22 -1 10 -12z m-340 -56 c0 -10 -91
-51 -114 -51 -33 0 -23 19 22 38 49 22 92 28 92 13z m-186 -80 c6 -10 -106
-61 -133 -61 -40 0 -30 17 26 42 60 28 98 35 107 19z m-340 -150 c3 -4 -67
-41 -157 -81 -89 -40 -195 -88 -235 -106 -92 -42 -107 -42 -60 0 21 18 107 63
200 104 90 40 170 77 178 82 19 12 67 13 74 1z m-787 -354 c-3 -7 -56 -37
-119 -64 -619 -278 -834 -373 -842 -370 -5 2 7 22 28 44 32 36 68 55 264 139
125 53 277 118 337 145 61 26 157 68 215 93 100 43 130 46 117 13z m-155 -209
c-144 -71 -186 -87 -224 -88 -26 0 -49 4 -52 9 -6 8 28 25 278 138 132 59 141
61 157 45 16 -16 7 -22 -159 -104z m-304 -130 c2 -10 -39 -34 -125 -76 -70
-33 -262 -126 -426 -206 -164 -80 -299 -146 -302 -146 -2 0 -70 -31 -151 -70
-80 -38 -148 -70 -149 -70 -2 0 -88 -41 -192 -91 -103 -50 -215 -104 -248
-119 -33 -15 -149 -71 -259 -124 -109 -53 -200 -96 -202 -96 -6 0 -44 63 -44
73 0 5 12 0 28 -11 38 -27 54 -31 80 -21 32 12 21 24 -33 38 -52 13 -56 21
-17 38 68 31 310 142 567 261 204 94 281 125 283 115 4 -16 -2 -18 117 37 52
24 95 50 100 62 10 19 152 89 240 118 22 7 56 23 75 35 19 12 87 44 150 73 63
28 193 87 289 130 176 80 211 88 219 50z m-838 -213 c6 -8 10 -20 8 -26 -4
-13 -799 -369 -810 -362 -12 7 39 77 69 95 16 9 144 66 286 127 142 62 290
127 330 146 80 38 99 42 117 20z m-1191 -526 c41 -14 39 -24 -6 -42 -21 -8
-63 -26 -93 -40 -160 -73 -264 -117 -267 -113 -9 9 8 44 36 71 27 28 251 135
282 135 9 0 30 -5 48 -11z m-209 -244 c0 -4 -7 -19 -15 -35 -8 -16 -12 -35 -9
-43 8 -22 -45 -58 -176 -120 -63 -30 -212 -101 -330 -158 -232 -111 -250 -116
-374 -95 -41 6 -46 10 -35 21 8 7 113 59 234 115 121 57 263 123 315 147 52
25 131 61 175 81 44 20 104 49 135 64 54 26 80 33 80 23z m-659 -144 l24 -19
-65 -30 c-124 -55 -135 -58 -175 -39 -19 9 -35 20 -35 24 0 12 171 81 201 82
15 1 37 -8 50 -18z m-276 -98 c-3 -16 -12 -37 -20 -48 -14 -21 -162 -92 -171
-82 -4 3 -2 23 3 44 8 35 14 40 93 75 47 21 89 38 94 38 4 0 5 -12 1 -27z
m-241 -105 c11 -42 7 -48 -27 -48 -42 0 -77 23 -56 36 61 39 75 41 83 12z
m-54 -208 c0 -5 -4 -10 -10 -10 -5 0 -10 5 -10 10 0 6 5 10 10 10 6 0 10 -4
10 -10z m-110 -50 c0 -5 -5 -10 -11 -10 -5 0 -7 5 -4 10 3 6 8 10 11 10 2 0 4
-4 4 -10z m-140 -70 c-20 -13 -33 -13 -25 0 3 6 14 10 23 10 15 0 15 -2 2 -10z
m-60 -18 c0 -5 -24 -19 -52 -33 -29 -13 -57 -30 -63 -36 -5 -7 -74 -42 -152
-78 -78 -35 -150 -69 -160 -74 -10 -6 -47 -23 -83 -40 -36 -16 -120 -61 -187
-100 -67 -39 -133 -71 -148 -71 -33 0 -43 26 -19 50 20 19 314 160 504 242 63
27 136 60 163 74 26 13 58 24 72 24 25 0 35 4 90 33 35 19 35 19 35 9z"/>
<path d="M8993 6719 c-64 -19 -84 -94 -38 -143 24 -26 29 -27 88 -22 34 3 233
9 442 12 394 6 565 0 1270 -47 514 -33 650 -46 1193 -114 1465 -183 2395 -366
3206 -631 926 -303 1466 -701 1433 -1058 -28 -304 -414 -609 -1124 -890 -105
-42 -200 -76 -212 -76 -28 0 -101 30 -101 41 0 5 3 9 8 9 29 0 306 52 326 61
36 17 40 39 16 101 -17 47 -26 57 -65 76 -25 12 -57 22 -71 22 -14 0 -94 -29
-177 -65 -83 -36 -163 -65 -177 -65 -32 0 -193 64 -472 189 -76 33 -200 88
-275 122 -76 33 -151 67 -168 75 -16 7 -223 96 -460 197 -441 189 -805 346
-1280 553 -148 64 -319 138 -380 164 -60 26 -130 56 -155 68 -25 11 -74 32
-110 47 -36 15 -83 35 -105 45 -42 20 -293 129 -430 187 -83 36 -210 91 -282
124 -24 10 -45 19 -48 19 -2 0 -28 11 -57 25 -29 13 -323 140 -653 281 -330
140 -618 264 -640 274 -22 9 -61 27 -87 38 -72 31 -406 124 -435 120 -15 -2
-28 -8 -30 -15 -4 -12 0 -16 73 -85 21 -20 52 -51 68 -70 36 -40 63 -57 96
-58 14 -1 98 -38 187 -83 89 -45 269 -136 400 -202 131 -66 267 -133 303 -149
36 -15 81 -38 100 -50 19 -12 64 -34 100 -50 36 -15 106 -48 155 -72 215 -104
544 -257 590 -274 28 -11 113 -52 190 -91 164 -84 692 -334 750 -356 22 -8
157 -73 300 -143 143 -71 308 -149 368 -174 96 -41 259 -119 312 -148 29 -17
275 -138 279 -138 3 0 674 -319 1024 -487 28 -14 52 -29 52 -33 0 -4 -30 -11
-67 -15 -75 -8 -120 -23 -146 -49 -31 -32 -21 -60 44 -120 47 -44 67 -56 93
-56 31 0 468 130 506 150 26 14 58 12 67 -3 4 -7 25 -23 46 -36 21 -13 36 -25
34 -27 -17 -17 -588 -163 -892 -228 -298 -64 -789 -152 -1034 -186 -39 -6
-102 -14 -141 -20 -951 -136 -1884 -214 -2995 -250 -165 -5 -370 -10 -455 -10
-85 0 -173 -5 -195 -10 -97 -22 -117 -133 -32 -176 29 -15 69 -17 407 -11
1127 19 2212 106 3370 268 695 98 1504 271 2079 445 62 19 126 34 141 34 31 0
143 -52 596 -276 l312 -154 30 -53 c72 -127 180 -175 307 -134 28 8 70 18 95
21 66 9 108 39 132 93 25 56 19 104 -20 182 -43 86 -96 134 -183 163 -112 39
-222 81 -344 130 -60 25 -121 49 -135 53 -22 6 -249 89 -323 117 -15 6 -24 14
-20 19 4 4 61 30 125 58 157 67 393 187 503 256 256 161 444 344 533 521 58
115 78 288 47 409 -91 350 -487 663 -1199 947 -576 229 -1342 425 -2266 578
-515 85 -1214 162 -1680 185 -69 4 -251 15 -405 25 -403 28 -640 39 -1070 50
-209 6 -447 15 -530 20 -82 5 -213 10 -290 10 -120 0 -239 10 -295 24 -8 2
-29 0 -47 -5z m307 -378 c59 -17 508 -209 1203 -516 147 -65 266 -123 264
-129 -7 -19 -59 -8 -88 20 -18 17 -34 24 -45 20 -9 -3 -30 2 -48 13 -17 11
-67 34 -111 51 -77 31 -326 140 -660 290 -88 40 -239 106 -335 147 -173 74
-274 123 -255 123 6 0 40 -8 75 -19z m150 -151 c22 -11 40 -27 40 -35 0 -12
-9 -11 -45 7 -24 12 -47 28 -49 35 -7 18 8 16 54 -7z m283 -134 c26 -20 21
-26 -13 -15 -16 6 -30 15 -30 20 0 13 22 10 43 -5z m311 -140 c76 -35 110 -69
39 -39 -56 23 -133 63 -133 68 0 11 22 4 94 -29z m336 -152 c22 -9 40 -22 40
-30 0 -18 -3 -18 -50 6 -70 36 -63 53 10 24z m577 -138 c43 -19 247 -107 453
-196 206 -89 416 -179 465 -200 50 -21 115 -49 145 -63 30 -14 73 -33 95 -42
22 -10 34 -19 28 -22 -7 -3 -13 -13 -13 -24 0 -22 -4 -23 -31 -9 -10 6 -19 20
-19 30 0 11 -2 20 -4 20 -2 0 -11 3 -20 6 -11 4 -16 1 -16 -10 0 -9 -5 -16
-10 -16 -17 0 -113 51 -136 71 -11 11 -80 44 -153 74 -146 60 -321 137 -449
196 -46 22 -92 39 -102 39 -10 0 -23 7 -31 16 -19 23 -86 55 -103 48 -21 -8
-162 60 -175 84 -22 40 -22 40 76 -2z m65 -149 c49 -23 78 -43 87 -60 8 -15
12 -29 9 -32 -8 -8 -131 51 -149 71 -16 19 -32 54 -24 54 2 0 37 -15 77 -33z
m186 -89 c7 -7 12 -23 12 -35 0 -21 -3 -22 -20 -13 -12 6 -20 21 -20 35 0 27
9 32 28 13z m1086 -342 c24 -13 43 -32 49 -49 12 -36 7 -40 -29 -27 -36 14
-71 46 -91 83 -14 28 -14 29 9 22 13 -4 41 -17 62 -29z m-272 -22 c26 -13 53
-33 61 -45 11 -14 16 -17 20 -7 8 23 41 -6 51 -45 5 -20 7 -39 4 -42 -3 -3
-32 8 -64 23 -32 16 -76 37 -97 47 -40 18 -50 32 -61 78 -6 26 -5 28 16 22 13
-4 44 -18 70 -31z m373 -34 c3 -5 1 -10 -4 -10 -6 0 -11 5 -11 10 0 6 2 10 4
10 3 0 8 -4 11 -10z m103 -30 c57 -27 192 -86 842 -364 124 -53 233 -101 242
-106 16 -9 313 -140 430 -191 58 -24 70 -44 49 -77 -20 -32 -99 17 -110 69
l-8 34 -11 -27 c-6 -16 -18 -28 -25 -28 -23 0 -64 38 -71 64 -7 30 -51 43 -75
22 -14 -13 -28 -10 -126 33 -180 78 -205 92 -236 131 -36 45 -55 55 -226 120
-73 28 -158 61 -188 74 -50 23 -56 23 -64 8 -9 -15 -12 -15 -45 1 -24 11 -36
24 -36 37 0 22 -64 60 -100 60 -12 0 -32 11 -45 25 -28 27 -29 27 -15 -9 6
-18 6 -26 -1 -26 -5 0 -61 25 -124 55 -94 46 -115 60 -123 84 -8 24 -7 41 3
41 1 0 29 -13 63 -30z m147 -219 c72 -33 87 -45 104 -80 21 -41 28 -75 13 -69
-4 2 -45 20 -89 42 -73 34 -84 44 -103 82 -20 45 -25 64 -14 64 3 0 44 -18 89
-39z m270 -134 c18 -26 20 -87 3 -87 -7 0 -28 9 -45 20 -29 17 -33 25 -33 64
l0 45 30 -11 c17 -5 37 -20 45 -31z m1225 -363 c27 -11 42 -24 46 -41 9 -36
-8 -49 -46 -33 -30 12 -50 43 -50 76 0 18 1 18 50 -2z m224 -94 c65 -27 76
-35 81 -62 11 -49 -5 -52 -87 -15 -63 29 -77 40 -87 67 -6 18 -11 37 -11 43 0
10 -1 11 104 -33z m292 -124 c300 -131 295 -128 249 -146 -34 -13 -92 -13
-100 0 -3 5 -23 14 -45 20 -21 6 -53 22 -70 37 -17 14 -46 27 -63 28 -55 3
-133 50 -146 86 -13 38 -14 49 -3 49 5 0 85 -33 178 -74z m635 -372 c66 -27
106 -53 59 -39 -27 8 -139 64 -129 65 3 0 34 -12 70 -26z m166 -59 c19 -8 45
-15 57 -15 11 0 70 -23 130 -50 61 -28 115 -50 122 -50 7 0 50 -19 96 -42 46
-22 101 -50 123 -61 22 -11 63 -26 90 -34 74 -22 117 -51 113 -77 -5 -34 -63
-26 -134 18 -33 20 -65 36 -72 36 -13 0 -75 28 -238 106 -39 19 -74 34 -78 34
-14 0 -275 130 -281 140 -9 15 30 12 72 -5z"/>
<path d="M4920 2711 c-253 -103 -432 -221 -620 -410 -165 -166 -259 -315 -300
-475 -54 -213 3 -391 157 -493 77 -51 112 -66 218 -94 80 -21 112 -24 280 -24
234 0 294 14 500 114 238 117 315 191 315 303 0 46 1 48 28 48 38 0 52 17 52
65 -1 47 -42 129 -80 157 -53 39 -557 50 -798 17 -86 -11 -94 -14 -108 -40
-21 -41 -17 -78 12 -137 40 -80 60 -87 181 -60 74 16 145 22 293 26 225 5 223
6 90 -81 -315 -207 -741 -263 -893 -119 -44 41 -60 81 -59 142 0 69 25 127
101 238 113 164 231 276 378 360 74 42 204 95 212 87 3 -3 14 -42 25 -87 17
-64 27 -86 49 -102 73 -54 187 15 187 115 0 48 -46 302 -66 361 -20 60 -59
108 -87 108 -12 -1 -42 -9 -67 -19z"/>
<path d="M12813 2625 c-228 -62 -578 -362 -674 -579 -47 -108 -32 -230 39
-299 72 -70 145 -81 357 -52 250 34 544 29 558 -9 15 -39 -99 -144 -218 -202
-119 -58 -170 -61 -535 -38 -60 3 -92 1 -110 -8 -81 -43 25 -208 164 -257 62
-22 78 -23 184 -18 162 8 254 34 426 119 175 87 326 222 382 343 27 57 32 142
12 207 -16 53 -82 118 -144 142 -79 30 -231 32 -409 6 -82 -12 -211 -24 -285
-27 -117 -5 -137 -4 -149 10 -28 35 122 200 277 306 74 50 125 75 189 94 77
23 115 10 154 -54 68 -110 171 -60 155 77 -8 70 -30 118 -77 169 -71 77 -177
102 -296 70z"/>
<path d="M10970 2485 c-63 -18 -187 -59 -275 -91 -162 -57 -175 -60 -231 -49
-38 8 -97 -15 -118 -47 -59 -90 -73 -697 -20 -903 52 -203 192 -355 365 -394
73 -17 245 -12 339 10 47 10 162 35 255 55 98 20 181 43 195 53 50 36 32 120
-41 186 -35 31 -45 35 -93 35 -35 0 -99 -13 -173 -36 -286 -88 -373 -101 -483
-68 -51 15 -130 76 -130 101 0 10 29 25 175 90 290 129 525 212 710 252 54 12
105 27 112 33 21 17 15 64 -11 95 -13 16 -45 39 -71 52 -40 20 -57 23 -109 18
-81 -8 -381 -92 -581 -162 -247 -87 -254 -89 -261 -83 -6 6 12 324 22 386 5
30 12 36 81 68 172 78 406 152 598 189 112 21 135 34 135 79 0 47 -64 123
-129 153 -47 22 -139 14 -261 -22z"/>
<path d="M6790 2443 c-103 -50 -209 -204 -545 -788 -217 -377 -223 -391 -186
-463 23 -46 50 -70 87 -81 34 -9 29 -10 239 63 195 68 391 121 522 141 107 16
191 19 210 7 7 -4 25 -58 41 -119 34 -134 61 -175 139 -210 47 -22 58 -23 84
-13 26 11 29 17 29 56 0 50 -38 201 -121 484 -207 702 -277 878 -369 925 -38
20 -86 19 -130 -2z m108 -406 c12 -13 33 -51 47 -85 35 -86 118 -413 107 -424
-4 -4 -69 -12 -142 -18 -171 -13 -274 -27 -374 -52 -43 -10 -82 -18 -87 -16
-9 3 132 290 190 387 126 211 201 270 259 208z"/>
<path d="M9280 2416 c-25 -7 -63 -22 -85 -33 -74 -39 -84 -57 -126 -240 -35
-152 -207 -702 -219 -703 -9 0 -88 262 -120 400 -86 368 -116 454 -165 466
-39 10 -105 -4 -151 -31 -57 -34 -143 -129 -181 -203 -93 -177 -213 -661 -230
-923 -5 -87 -4 -101 16 -143 26 -53 73 -96 105 -96 47 0 65 38 102 215 49 237
91 403 141 545 33 94 76 200 82 200 3 0 28 -66 55 -147 100 -303 214 -558 314
-708 58 -86 82 -94 136 -43 33 31 40 50 109 293 41 143 89 312 106 375 18 63
43 153 56 200 13 47 29 104 35 128 6 23 15 40 19 38 5 -3 11 -31 15 -63 3 -32
17 -125 31 -208 30 -184 82 -512 91 -580 14 -103 52 -145 129 -145 41 0 80 32
91 76 4 15 -1 100 -10 188 -10 89 -26 240 -36 336 -11 96 -26 265 -35 375 -26
331 -39 390 -97 425 -38 23 -107 25 -178 6z"/>
</g>
</svg>
